<svg xmlns="http://www.w3.org/2000/svg" xmlns:xlink="http://www.w3.org/1999/xlink" width="28" height="28" viewBox="0 0 28 28">
    <defs>
        <path id="a" d="M23.474 17.548H26v5.807a.639.639 0 0 1-.632.645H2.632A.639.639 0 0 1 2 23.355v-5.807h2.526v1.936c0 .713.566 1.29 1.263 1.29h2.527c.698 0 1.263-.577 1.263-1.29v-1.936h8.842v1.936c0 .713.565 1.29 1.263 1.29h2.527c.697 0 1.263-.577 1.263-1.29v-1.936zM26 7.871v8.387h-2.526v-1.935c0-.713-.566-1.29-1.263-1.29h-2.527c-.698 0-1.263.577-1.263 1.29v1.935H9.58v-1.935c0-.713-.565-1.29-1.263-1.29H5.789c-.697 0-1.263.577-1.263 1.29v1.935H2V7.871c0-.356.283-.645.632-.645h6.947V4.968c0-.535.424-.968.947-.968h6.948c.523 0 .947.433.947.968v2.258h6.947c.35 0 .632.289.632.645zm-14.526-.645h5.052v-1.29h-5.052v1.29zm10.737 7.097h-2.527v5.16h2.527v-5.16zm-13.895 0H5.789v5.16h2.527v-5.16z"/>
    </defs>
    <g fill="none" fill-rule="evenodd">
        <path d="M0 0h28v28H0z"/>
        <mask id="b" fill="#fff">
            <use xlink:href="#a"/>
        </mask>
        <use fill="#000" fill-rule="nonzero" xlink:href="#a"/>
        <g mask="url(#b)">
            <path fill="#A8AFC0" d="M0-2h28v28H0z"/>
        </g>
    </g>
</svg>
