<svg xmlns="http://www.w3.org/2000/svg" xmlns:xlink="http://www.w3.org/1999/xlink" width="28" height="28" viewBox="0 0 28 28">
    <defs>
        <path id="a" d="M13.125 22.79c1.542-.179 1.75 1.765 1.75 3.111-1.81.06-3.441.06-5.37 0 .06-1.346.238-3.26 1.78-3.11.505.269 1.336.358 1.84 0zm8.573-7.746c3.709-.389 4.213 7.597 4.302 10.887-3.412.12-6.467.06-9.82 0-.207-1.615-.652-3.44-1.631-3.918.06-.21.178-.449.267-.718.148-.389.207-1.974.148-2.213-.089-.539-.386-.987-.86-1.316.652-1.675 1.631-2.902 3.115-2.722 1.216.658 3.233.837 4.48 0zm-11.777 6.79c-1.454.298-1.394 2.691-1.632 4.067-1.75 0-4.034.09-6.289 0 .119-3.59-.237-15.074 4.687-14.446 1.335.747 3.53.927 4.895 0 2.077-.27 2.255 1.555 2.937 3.11-.771.479-1.364 1.436-1.869 2.722-.326-.09-.712-.06-1.097 0-1.157.21-1.81.838-1.958 1.765-.12.718-.06 1.794.118 2.213.09.21.149.389.208.568zM8.675 11.125c-.83-.15-1.632-.509-2.166-1.197-.474-.568-.682-1.316-.712-2.213-.03-1.316.238-3.08.386-3.5.534-1.495 1.899-2.542 4.124-2.123 2.225.419 3.144 1.854 3.115 3.47 0 .418-.386 2.183-.86 3.38-.327.807-.802 1.465-1.425 1.824-.771.478-1.631.538-2.462.359zm13.973.747c.207.449 1.335 1.017 1.335 1.017s-1.424.33-2.018.599c-.385.388-1.335 1.076-2.225 1.196-1.068.15-1.987-.3-2.462-.598-.653-.12-2.106-.06-2.106-.06s.95-.867 1.068-1.346c.118-.479-.06-.718-.238-1.466-.534-2.333.475-4.187 2.73-4.486 2.047-.27 3.678 1.226 3.767 3.649.03.778-.089 1.047.149 1.495zM12.265 22.551c-.416 0-.831-.09-1.187-.359-.267-.24-.445-.568-.534-.987-.148-.628-.148-1.465-.119-1.675.119-.747.712-1.346 1.84-1.346 1.127 0 1.72.599 1.839 1.346.03.21 0 1.047-.119 1.675-.089.419-.267.748-.534.987-.356.27-.771.36-1.186.36z"/>
    </defs>
    <g fill="none" fill-rule="evenodd">
        <path d="M0 0h28v28H0z"/>
        <mask id="b" fill="#fff">
            <use xlink:href="#a"/>
        </mask>
        <use fill="#000" fill-rule="nonzero" xlink:href="#a"/>
        <g mask="url(#b)">
            <path fill="#A8AFC0" d="M-10-12h48v48h-48z"/>
        </g>
    </g>
</svg>
