<svg xmlns="http://www.w3.org/2000/svg" xmlns:xlink="http://www.w3.org/1999/xlink" width="28" height="28" viewBox="0 0 28 28">
    <defs>
        <path id="a" d="M25.47 7.108l-7.592-3.05a.83.83 0 0 0-.28-.058h-.067a.83.83 0 0 0-.28.058l-7.595 3.05a.832.832 0 0 0-.522.771v4.115l-1.62-.652a.673.673 0 0 0-.23-.05H7.22a.673.673 0 0 0-.23.05l-4.554 1.829a.694.694 0 0 0-.436.647v10.35a.697.697 0 0 0 1.393 0v-9.881l3.163-1.269v11.15c0 .383.311.696.697.696h4.559c.383 0 .696-.31.696-.696v-10.35a.7.7 0 0 0-.435-.647l-1.268-.508v-4.22l5.93-2.381v17.967c0 .46.371.833.832.833h7.601c.46 0 .832-.372.832-.833V7.88a.845.845 0 0 0-.53-.771z"/>
    </defs>
    <g fill="none" fill-rule="evenodd">
        <mask id="b" fill="#fff">
            <use xlink:href="#a"/>
        </mask>
        <use fill="#000" fill-rule="nonzero" xlink:href="#a"/>
        <g fill="#A8AFC0" mask="url(#b)">
            <path d="M-10-10h48v48h-48z"/>
        </g>
    </g>
</svg>
