<svg xmlns="http://www.w3.org/2000/svg" xmlns:xlink="http://www.w3.org/1999/xlink" width="28" height="28" viewBox="0 0 28 28">
    <defs>
        <path id="a" d="M20.39 10.68c.303-.61.258-.965-.153-1.252-.41-.287-.655-.19-1.352.483l-2.248-1.893c.107-.174.198-.348.313-.502a.4.4 0 0 0 .019-.466 3.665 3.665 0 0 0-3.64-2.173h-.358c.122-.147.21-.277.32-.388.646-.633 1.463-.944 2.35-1.115a3.515 3.515 0 0 1 2.752.649c.2.143.412.27.633.379.147.079.311.12.478.118a1.45 1.45 0 0 1 1.058.357c.299.223.583.465.85.725a2.162 2.162 0 0 1 .48 1c.2.79.718 1 1.41.557.6.516 1.212 1.03 1.807 1.562a.615.615 0 0 1 .071.893c-.126.171-.274.323-.415.483l-1.673 1.832c-.37.408-.623.434-1.051.094-.547-.442-1.092-.89-1.651-1.342zm-1.952-.064l-1.06 1.354L7.721 24.28a1.213 1.213 0 0 1-1.852.198c-.449-.376-.903-.748-1.35-1.13a1.187 1.187 0 0 1-.127-1.78 22156 22156 0 0 1 11.55-12.923.784.784 0 0 1 .075-.056l2.42 2.026zm7.469 9.233c.007.038.016.075.026.111l.067.724-.088.768c-.005.048-.015.094-.031.193-.242-.212-.457-.405-.677-.591a184.331 184.331 0 0 0-1.813-1.526.351.351 0 0 0-.239-.07c-.497.065-.992.145-1.488.225a.26.26 0 0 0-.149.077c-.237.285-.47.573-.7.864a.265.265 0 0 0-.057.157c.017.526.036 1.052.064 1.576a.307.307 0 0 0 .115.179l2.39 1.999a.908.908 0 0 1 .078.082.77.77 0 0 1-.112.08 4.007 4.007 0 0 1-3.24-.08 4.193 4.193 0 0 1-2.344-2.76 4.198 4.198 0 0 1-.129-1.69.343.343 0 0 0-.074-.24c-.545-.602-1.077-1.217-1.653-1.787a24.098 24.098 0 0 0-1.066-1.004l1.912-2.32c.235.182.474.359.716.531.75.531 1.537 1.014 2.31 1.514a.201.201 0 0 0 .173 0 4.202 4.202 0 0 1 5.419 1.506c.277.457.476.958.59 1.482zM10.47 9.051a25.33 25.33 0 0 0 1.713 1.825l-1.988 2.274c-.504-.417-1.018-.81-1.527-1.207-.282-.22-.587-.41-.89-.603a.284.284 0 0 0-.22 0 3.937 3.937 0 0 1-2.76-.024 4.019 4.019 0 0 1-2.39-2.248 9.686 9.686 0 0 1-.324-1.05c-.022-.036-.022-.07-.039-.106L2 7.166l.143-.944c.175.155.325.29.471.413l1.95 1.76a.313.313 0 0 0 .272.091c.492-.065.97-.118 1.448-.183a.355.355 0 0 0 .196-.111c.236-.26.459-.531.698-.802a.287.287 0 0 0 .064-.171c0-.52-.006-1.04-.02-1.56a.257.257 0 0 0-.083-.161c-.707-.636-1.415-1.27-2.124-1.905l-.31-.275c.098-.041.167-.08.239-.101a4.092 4.092 0 0 1 3.55.449 4.297 4.297 0 0 1 1.833 4.71c-.16.272-.041.46.143.675z"/>
    </defs>
    <g fill="none" fill-rule="evenodd">
        <path d="M0 0h28v28H0z"/>
        <mask id="b" fill="#fff">
            <use xlink:href="#a"/>
        </mask>
        <use fill="#000" fill-rule="nonzero" xlink:href="#a"/>
        <g mask="url(#b)">
            <path fill="#A8AFC0" d="M-10-12h48v48h-48z"/>
        </g>
    </g>
</svg>
