<?xml version="1.0" ?><!DOCTYPE svg  PUBLIC '-//W3C//DTD SVG 1.1//EN'  'http://www.w3.org/Graphics/SVG/1.1/DTD/svg11.dtd'><svg enable-background="new 0 0 32 32" version="1.1" viewBox="0 0 32 32" xml:space="preserve" xmlns="http://www.w3.org/2000/svg" xmlns:xlink="http://www.w3.org/1999/xlink"><g id="Layer_2"/><g id="Layer_3"/><g id="Layer_4"/><g id="Layer_5"/><g id="Layer_6"/><g id="Layer_7"/><g id="Layer_8"/><g id="Layer_9"/><g id="Layer_10"/><g id="Layer_11"/><g id="Layer_12"/><g id="Layer_13"/><g id="Layer_14"/><g id="Layer_15"/><g id="Layer_16"/><g id="Layer_17"/><g id="Layer_18"/><g id="Layer_19"/><g id="Maps_11_"/><g id="Maps_10_"/><g id="Maps_9_"><g><path d="M30,17c0,7.72-6.28,14-14,14c-3.48,0-6.81-1.29-9.39-3.62c-0.38-0.34-0.44-0.91-0.14-1.32    c1.73-2.41,4.08-4.1,6.9901-5.01c8.0099-2.54,11.37-7.54,9.46-14.1c-0.12-0.41,0.04-0.86,0.39-1.1c0.36-0.25,0.83-0.24,1.17,0.02    C27.99,8.53,30,12.59,30,17z" fill="#16BCD4"/></g><g><path d="M14.06,22.95c-2.49,0.79-4.49,2.22-5.97,4.27c-0.16,0.24-0.42,0.38-0.7,0.41    c-0.04,0.01-0.07,0.01-0.11,0.01c-0.25,0-0.4901-0.09-0.67-0.26C3.68,24.73,2,20.95,2,17c0-3.06,0.97-5.97,2.81-8.4    c0.06-0.08,0.13-0.15,0.21-0.21L11.19,3.9c0.08-0.06,0.17-0.1,0.26-0.13C12.91,3.26,14.44,3,16,3c3.1,0,6.04,0.99,8.49,2.88    c0.17,0.13,0.29,0.31,0.35,0.51C25.89,10.01,26.95,18.87,14.06,22.95z" fill="#2197F3"/></g><g><g><path d="M13,6c0,2.42-1.72,4.44-4,4.9V18c0,0.55-0.45,1-1,1s-1-0.45-1-1v-7.1C4.72,10.44,3,8.42,3,6     c0-2.76,2.24-5,5-5S13,3.24,13,6z" fill="#3F51B5"/></g></g></g><g id="Maps_8_"/><g id="Maps_7_"/><g id="Maps_6_"/><g id="Maps_5_"/><g id="Maps_4_"/><g id="Maps_3_"/><g id="Maps_2_"/><g id="Maps_1_"/><g id="Maps"/></svg>