<?xml version="1.0" ?><svg data-name="Layer 1" id="Layer_1" viewBox="0 0 64 64" xmlns="http://www.w3.org/2000/svg" xmlns:xlink="http://www.w3.org/1999/xlink"><defs><style>.cls-1{fill:url(#linear-gradient);}.cls-2{fill:#fff;}</style><linearGradient gradientUnits="userSpaceOnUse" id="linear-gradient" x1="7.69" x2="56.31" y1="7.69" y2="56.31"><stop offset="0" stop-color="#2b3990"/><stop offset="1" stop-color="#262262"/></linearGradient></defs><title/><rect class="cls-1" height="58" rx="16.02" ry="16.02" width="58" x="3" y="3"/><path class="cls-2" d="M35.24,41.92a41.5,41.5,0,0,0,11.5-6.5,13.34,13.34,0,0,1-1.17,3.08,15.44,15.44,0,0,1-13.25,8.08,15,15,0,0,1-7.83-2.25A41.59,41.59,0,0,0,35.24,41.92Z"/><path class="cls-2" d="M52.49,24.2c-1.18-3.1-5.58-4-11-3.53a14.11,14.11,0,0,0-1.87-1.29,14.43,14.43,0,0,0-7.29-2,14.6,14.6,0,0,0-14.1,10.85C18.12,28.64,18,29,18,29.41c-4.73,3.34-7.69,7.14-6.46,10.39,1,2.58,4.2,3.66,8.38,3.66a29.81,29.81,0,0,0,3.19-.18,50,50,0,0,0,12.06-3,49.27,49.27,0,0,0,11.62-6.2c3.6-2.69,6-5.63,6-8.33A4.27,4.27,0,0,0,52.49,24.2Zm-5.7,6a40.94,40.94,0,0,1-12.72,7.28,42.23,42.23,0,0,1-13.61,3c-3.48.09-5.73-.62-6.15-1.73s0.8-3.16,3.5-5.43a13.06,13.06,0,0,0,.33,2.08,14,14,0,0,0,1.56,3.9c0.39,0,.8,0,1.23,0A42.38,42.38,0,0,0,34.49,36a42.22,42.22,0,0,0,12.1-7.07,15,15,0,0,0-1.14-3.3,13.17,13.17,0,0,0-1.25-2.11,12.73,12.73,0,0,1,3.72.48,2.56,2.56,0,0,1,1.76,1.26C50.07,26.3,49.07,28.11,46.79,30.17Z"/></svg>