<svg xmlns="http://www.w3.org/2000/svg" xmlns:xlink="http://www.w3.org/1999/xlink" width="28" height="28" viewBox="0 0 28 28">
    <defs>
        <path id="a" d="M13.782 11.442c-2.837-.98-7.2-.98-9.927 0-1.2.436-1.855.98-1.855 1.524 0 .435.655.98 1.855 1.415 2.727.98 7.09.98 9.927 0 1.09-.435 1.745-.98 1.745-1.415 0-.544-.654-1.088-1.745-1.524zm.436-5.769c2.727.98 7.2.98 9.927 0C25.236 5.238 26 4.693 26 4.26c0-.545-.764-1.089-1.855-1.524-2.727-.98-7.2-.98-9.927 0-1.2.435-1.854.98-1.854 1.524 0 .435.654.98 1.854 1.414zm0 3.592c2.727.98 7.2.98 9.927 0C25.236 8.94 26 8.395 26 7.85V5.673c-.436.327-.982.545-1.636.762-2.837 1.089-7.528 1.089-10.473 0-.655-.217-1.091-.435-1.527-.762V7.85c0 .545.654 1.089 1.854 1.415zm3.164 4.354c2.073.218 4.69 0 6.763-.653 1.091-.435 1.855-.98 1.855-1.524V9.265a5.786 5.786 0 0 1-1.636.871c-2.837.98-7.528.98-10.473 0-.655-.218-1.091-.544-1.527-.87v.979c.654.109 1.2.218 1.636.435 1.527.544 2.4 1.306 2.4 2.286v.544l.982.109zm0 3.592c2.073.218 4.69.109 6.763-.653 1.091-.436 1.855-.98 1.855-1.415v-2.177c-.436.218-.982.544-1.636.762-2.073.762-4.8.98-7.091.762l-.873-.109v2.721l.982.109zm0 3.592c2.073.217 4.69.109 6.763-.653 1.091-.327 1.855-.871 1.855-1.415v-2.177c-.436.326-.982.544-1.636.762-2.073.762-4.8.98-7.091.762l-.873-.11v2.722l.982.109zM14 22.435c-2.945 1.089-7.527 1.089-10.473 0-.654-.217-1.2-.435-1.527-.762v2.177c0 .436.655.98 1.855 1.415 2.727.98 7.09.98 9.927 0 1.09-.435 1.745-.98 1.745-1.415v-2.177c-.327.327-.872.545-1.527.762zm0-3.591c-2.945.98-7.527.98-10.473 0-.654-.218-1.2-.545-1.527-.871v2.177c0 .544.655 1.088 1.855 1.523 2.727.98 7.09.98 9.927 0 1.09-.435 1.745-.98 1.745-1.523v-2.177c-.327.326-.872.653-1.527.87zm0-3.701c-2.945 1.088-7.527 1.088-10.473 0-.654-.218-1.2-.436-1.527-.762v2.177c0 .544.655 1.088 1.855 1.415 2.727.98 7.09.98 9.927 0 1.09-.327 1.745-.871 1.745-1.415V14.38c-.327.326-.872.544-1.527.762z"/>
    </defs>
    <g fill="none" fill-rule="evenodd">
        <path d="M0 0h28v28H0z"/>
        <mask id="b" fill="#fff">
            <use xlink:href="#a"/>
        </mask>
        <use fill="#000" xlink:href="#a"/>
        <g mask="url(#b)">
            <path fill="#A8AFC0" d="M-10-12h48v48h-48z"/>
        </g>
    </g>
</svg>
