<svg xmlns="http://www.w3.org/2000/svg" xmlns:xlink="http://www.w3.org/1999/xlink" width="28" height="28" viewBox="0 0 28 28">
    <defs>
        <path id="a" d="M23.523 22.435c.003.021.005.042.005.064v1.006c0 .274-.23.495-.513.495h-2.642a.525.525 0 0 1-.152-.022.497.497 0 0 1-.36-.473V13.4l.024-.023.016-.017.026-.027a.449.449 0 0 0-.01.012l-.007.006.21-.202 2.266-2.186.003.003 1.104-1.066.004-.004.005-.004.013 7.843.008 4.701zm-8.427-4.476v5.546c0 .274.23.495.513.495h2.642a.504.504 0 0 0 .513-.495v-9.048l-3.424 3.304c-.076.074-.158.14-.244.198zm-3.882-1.618l-.881.85v6.314c0 .273.23.495.513.495h2.641a.504.504 0 0 0 .513-.495V18.29a1.9 1.9 0 0 1-1.314-.53l-1.472-1.42zM6.7 20.694l-.1.092c-.014.013-.076.071-.18.172l-.852.822v1.725c0 .274.23.495.513.495h2.642a.504.504 0 0 0 .513-.495V18.25l-2.37 2.286-.166.16zM25.894 4.156c-.108-.129-.288-.156-.42-.156-.078 0-.163.01-.252.028l-4.89 1.023c-.31.065-.45.182-.474.263-.025.081.026.252.25.469l1.175 1.13-1.69 1.63-5.05 4.873-.644.622-2.314-2.232a.535.535 0 0 0-.737 0l-.198.192-.76.733-6.263 6.042-1.475 1.424a.49.49 0 0 0-.147.422.294.294 0 0 0 .086.265l.872.841c.03.03.067.052.105.067l.043.04a.535.535 0 0 0 .737 0l7.022-6.775.346-.334 1.263 1.219a.508.508 0 0 0 .049.04.5.5 0 0 0 .043.048l.958.925a.535.535 0 0 0 .737 0l1.973-1.903 5.05-4.872 1.69-1.631 1.17 1.127c.238.23.399.247.442.247.158 0 .27-.249.318-.462l1.061-4.71c.058-.256.031-.467-.076-.595z"/>
    </defs>
    <g fill="none" fill-rule="evenodd">
        <path d="M0 0h28v28H0z"/>
        <mask id="b" fill="#fff">
            <use xlink:href="#a"/>
        </mask>
        <use fill="#000" fill-rule="nonzero" xlink:href="#a"/>
        <g mask="url(#b)">
            <path fill="#A8AFC0" d="M-10-12h48v48h-48z"/>
        </g>
    </g>
</svg>
