<svg xmlns="http://www.w3.org/2000/svg" xmlns:xlink="http://www.w3.org/1999/xlink" width="28" height="28" viewBox="0 0 28 28">
    <defs>
        <path id="a" d="M24.248 12.29H19.25l2.498-4.047 2.499 4.047zm-15.5.007H3.753L6.25 8.25l2.499 4.047zm8.75.676c0 1.24.468 2.367 1.224 3.185.772.836 1.843 1.354 3.028 1.354s2.256-.518 3.027-1.354A4.69 4.69 0 0 0 26 12.973v-.459l-3.663-5.933-.588-.952-7.07.003V4.075c.556-.257.941-.815.941-1.462 0-.891-.73-1.613-1.632-1.613-.901 0-1.632.722-1.632 1.613 0 .648.385 1.205.942 1.462v1.558l-7.048.003-.587.952-3.524 5.709L2 12.52V12.98c0 1.24.468 2.366 1.223 3.184.772.836 1.843 1.354 3.027 1.354 1.186 0 2.256-.518 3.028-1.354a4.686 4.686 0 0 0 1.223-3.184v-.459L7.09 6.996l6.207-.003v14.641H7.721V23h12.534v-1.366H14.68V6.992l6.23-.002-3.272 5.3-.138.225V12.973z"/>
    </defs>
    <g fill="none" fill-rule="evenodd">
        <path d="M0 0h28v28H0z"/>
        <mask id="b" fill="#fff">
            <use xlink:href="#a"/>
        </mask>
        <use fill="#000" fill-rule="nonzero" xlink:href="#a"/>
        <g mask="url(#b)">
            <path fill="#A8AFC0" d="M-10-12h48v48h-48z"/>
        </g>
    </g>
</svg>
