<svg xmlns="http://www.w3.org/2000/svg" xmlns:xlink="http://www.w3.org/1999/xlink" width="28" height="28" viewBox="0 0 28 28">
    <defs>
        <path id="a" d="M17.099 19.384c0 .11-.046.211-.125.286-1.162 1.112-1.993 1.805-2.537 2.12-.581.339-1.059.502-1.463.502-.399 0-.727-.134-.972-.403-.235-.256-.356-.604-.356-1.032 0-1.094.61-3.635 1.867-7.766a2.19 2.19 0 0 0 .047-.2 1.579 1.579 0 0 0-.163.091c-.103.066-.415.314-1.333 1.224a.385.385 0 0 1-.511.032l-.545-.43a.392.392 0 0 1-.149-.278.406.406 0 0 1 .102-.302c.842-.945 1.63-1.63 2.341-2.037.745-.425 1.373-.634 1.921-.634.356 0 .643.089.853.269.23.193.351.461.351.782 0 .208-.098.747-.814 3.19-1.024 3.493-1.268 4.76-1.285 5.2.193-.118.651-.448 1.63-1.384a.387.387 0 0 1 .542.005l.48.477c.076.075.119.18.119.288zm-.057-12.363c0 .467-.163.884-.48 1.238-.326.362-.707.547-1.131.547-.35 0-.662-.131-.9-.385-.234-.248-.356-.573-.356-.962 0-.478.155-.89.461-1.229.314-.345.699-.522 1.14-.522.357 0 .671.131.907.38.239.245.359.559.359.933z"/>
    </defs>
    <g fill="#A8AFC0" fill-rule="nonzero" opacity=".7">
        <path d="M24.154 27.887H3.804c-1.926 0-3.492-1.591-3.492-3.547V3.66C.312 1.705 1.88.114 3.804.114h20.35c1.925 0 3.49 1.591 3.49 3.548v20.678c0 1.957-1.565 3.548-3.49 3.548zM3.392 2.371a.866.866 0 0 0-.857.872v21.514c0 .48.385.872.857.872h21.173c.473 0 .858-.391.858-.872V3.243a.866.866 0 0 0-.858-.872H3.392z"/>
        <use xlink:href="#a"/>
    </g>
</svg>
