<svg xmlns="http://www.w3.org/2000/svg" xmlns:xlink="http://www.w3.org/1999/xlink" width="60" height="60" viewBox="0 0 60 60">
    <defs>
        <path id="a" d="M14 28c7.72 0 14-6.28 14-14S21.72 0 14 0 0 6.28 0 14s6.28 14 14 14zm4.692-2.686c.727-.945 1.355-2.106 1.857-3.439h2.824a12.307 12.307 0 0 1-4.68 3.44zm5.91-5.189h-3.493c.426-1.595.687-3.367.75-5.25h4.356a12.16 12.16 0 0 1-1.613 5.25zm0-12.25a12.16 12.16 0 0 1 1.613 5.25H21.86c-.063-1.883-.324-3.655-.75-5.25h3.493zm-1.229-1.75H20.55c-.502-1.333-1.13-2.494-1.857-3.44a12.307 12.307 0 0 1 4.681 3.44zm-8.498-4.242c1.489.447 2.822 2.014 3.772 4.242h-3.772V1.883zm0 5.992h4.399c.466 1.573.762 3.36.833 5.25h-5.232v-5.25zm0 7h5.232c-.07 1.89-.367 3.677-.833 5.25h-4.399v-5.25zm0 7h3.772c-.95 2.228-2.283 3.795-3.772 4.242v-4.242zm-10.248 0H7.45c.502 1.333 1.13 2.494 1.857 3.44a12.308 12.308 0 0 1-4.681-3.44zm8.498 4.242c-1.489-.447-2.822-2.014-3.772-4.242h3.772v4.242zm0-5.992H8.726c-.466-1.573-.762-3.36-.833-5.25h5.232v5.25zm0-7H7.893c.07-1.89.367-3.677.833-5.25h4.399v5.25zm0-11.242v4.242H9.353c.95-2.228 2.283-3.795 3.772-4.242zm-3.817.803C8.58 3.63 7.953 4.792 7.45 6.125H4.627a12.308 12.308 0 0 1 4.68-3.44zm-5.91 5.189h3.493c-.426 1.595-.687 3.367-.75 5.25H1.785a12.16 12.16 0 0 1 1.613-5.25zm-1.613 7H6.14c.063 1.883.324 3.655.75 5.25H3.398a12.16 12.16 0 0 1-1.613-5.25z"/>
    </defs>
    <g fill="none" fill-rule="evenodd" opacity=".6">
        <path fill="#21224D" d="M0 0h60v60H0z"/>
        <g transform="translate(16 16)">
            <mask id="b" fill="#fff">
                <use xlink:href="#a"/>
            </mask>
            <use fill="#686E85" fill-rule="nonzero" xlink:href="#a"/>
            <g fill="#A8AFC0" mask="url(#b)">
                <path d="M-14-14h56v56h-56z"/>
            </g>
        </g>
    </g>
</svg>
